HIERARCHY
ROOT Hips
{
	OFFSET 0.000000 0.000000 0.000000
	CHANNELS 6 Xposition Yposition Zposition Zrotation Yrotation Xrotation 
	JOINT LowerBack
	{
		OFFSET 0.000000 0.000000 0.000000
		CHANNELS 3 Zrotation Yrotation Xrotation
		JOINT Spine
		{
			OFFSET 0.028270 2.035590 -0.193380
			CHANNELS 3 Zrotation Yrotation Xrotation
			JOINT Spine1
			{
				OFFSET 0.056720 2.048850 -0.042750
				CHANNELS 3 Zrotation Yrotation Xrotation
				JOINT Neck
				{
					OFFSET 0.000000 0.000000 0.000000
					CHANNELS 3 Zrotation Yrotation Xrotation
					JOINT Neck1
					{
						OFFSET -0.054170 1.746240 0.172020
						CHANNELS 3 Zrotation Yrotation Xrotation
						JOINT Head
						{
							OFFSET 0.104070 1.761360 -0.123970
							CHANNELS 3 Zrotation Yrotation Xrotation
							End Site
							{
								OFFSET 0.000000 0.000000 0.000000
							}
						}
					}
				}
				JOINT LeftShoulder
				{
					OFFSET 0.000000 0.000000 0.000000
					CHANNELS 3 Zrotation Yrotation Xrotation
					JOINT LeftArm
					{
						OFFSET 3.362410 1.200890 -0.311210
						CHANNELS 3 Zrotation Yrotation Xrotation
						JOINT LeftForeArm
						{
							OFFSET 4.983000 -0.000000 -0.000000
							CHANNELS 3 Zrotation Yrotation Xrotation
							JOINT LeftHand
							{
								OFFSET 3.483560 -0.000000 -0.000000
								CHANNELS 3 Zrotation Yrotation Xrotation
								JOINT LeftFingerBase
								{
									OFFSET 0.000000 0.000000 0.000000
									CHANNELS 3 Zrotation Yrotation Xrotation
									JOINT LeftHandIndex1
									{
										OFFSET 0.715260 -0.000000 -0.000000
										CHANNELS 3 Zrotation Yrotation Xrotation
										End Site
										{
											OFFSET 0.000000 0.000000 0.000000
										}
									}
								}
								JOINT LThumb
								{
									OFFSET 0.000000 0.000000 0.000000
									CHANNELS 3 Zrotation Yrotation Xrotation
									End Site
									{
										OFFSET 0.000000 0.000000 0.000000
									}
								}
							}
						}
					}
				}
				JOINT RightShoulder
				{
					OFFSET 0.000000 0.000000 0.000000
					CHANNELS 3 Zrotation Yrotation Xrotation
					JOINT RightArm
					{
						OFFSET -3.136600 1.374050 -0.404650
						CHANNELS 3 Zrotation Yrotation Xrotation
						JOINT RightForeArm
						{
							OFFSET -5.241900 -0.000000 -0.000000
							CHANNELS 3 Zrotation Yrotation Xrotation
							JOINT RightHand
							{
								OFFSET -3.444170 -0.000000 -0.000000
								CHANNELS 3 Zrotation Yrotation Xrotation
								JOINT RightFingerBase
								{
									OFFSET 0.000000 0.000000 0.000000
									CHANNELS 3 Zrotation Yrotation Xrotation
									JOINT RightHandIndex1
									{
										OFFSET -0.622530 -0.000000 -0.000000
										CHANNELS 3 Zrotation Yrotation Xrotation
										End Site
										{
											OFFSET 0.000000 0.000000 0.000000
										}
									}
								}
								JOINT RThumb
								{
									OFFSET 0.000000 0.000000 0.000000
									CHANNELS 3 Zrotation Yrotation Xrotation
									End Site
									{
										OFFSET 0.000000 0.000000 0.000000
									}
								}
							}
						}
					}
				}
			}
		}
	}
}
}
MOTION
Frames: 16
Frame Time: 0.008333
7.383837 19.713247 0.892272 49.269189 -86.598550 -22.762822 1.039654 -0.810825 -5.881392 -0.108541 -0.966041 -4.686701 -3.719127 -0.885165 -3.945220 3.663401 -2.228904 3.915589 -1.710392 -0.297637 3.205697 0.000000 0.000000 0.000000 11.299312 -1.632184 -3.556910 -46.617407 -51.210517 -13.603679 178.439490 -80.260497 179.727257 19.169110 -0.871650 -0.292024 -0.196176 0.842558 -0.000000 0.000000 0.000000 0.000000 0.000000 0.000000 0.000000 -1.603715 -1.337465 -3.767291 54.192626 62.730341 -10.444910 -0.242315 80.894930 -0.210485 -14.643205 10.294744 -1.433147 -0.026023 -0.829765 -0.000000 0.000000 0.000000 0.000000 0.000000 0.000000 0.000000 
7.177628 19.835796 0.879309 47.704000 -86.644177 -21.296663 1.189294 -0.837143 -5.380136 -0.072666 -0.994678 -4.567368 -3.704379 -0.909676 -3.873566 3.627435 -2.345866 3.959559 -1.707375 -0.297471 3.208890 0.000000 0.000000 0.000000 11.382464 -1.321657 -3.545093 -46.321705 -50.921237 -14.178409 178.400775 -79.540954 179.729210 19.031336 -0.880552 -0.291456 -0.196259 0.842356 -0.000000 0.000000 0.000000 0.000000 0.000000 0.000000 0.000000 -1.740153 -1.559093 -3.882083 53.558161 62.568186 -11.401722 -0.110324 82.204541 -0.216708 -15.105738 10.427325 -1.498501 -0.017081 -0.835315 -0.000000 0.000000 0.000000 0.000000 0.000000 0.000000 0.000000 
6.970305 19.949036 0.866248 45.424896 -86.624755 -19.055494 1.328396 -0.865809 -4.928448 -0.039965 -1.025693 -4.455972 -3.697223 -0.937339 -3.794707 3.625141 -2.468492 4.022306 -1.714697 -0.298032 3.216997 0.000000 0.000000 0.000000 11.450710 -1.058001 -3.545244 -46.216532 -50.735274 -14.634833 178.369946 -78.918197 179.731281 18.881199 -0.887186 -0.290172 -0.195415 0.842312 -0.000000 0.000000 0.000000 0.000000 0.000000 0.000000 0.000000 -1.799569 -1.805147 -3.985629 52.916505 62.367538 -12.335097 0.027407 83.544830 -0.222304 -15.540534 10.552073 -1.560954 -0.008035 -0.839920 -0.000000 0.000000 0.000000 0.000000 0.000000 0.000000 0.000000 
6.761464 20.052598 0.852946 42.782003 -86.541198 -16.397576 1.452372 -0.894848 -4.534019 -0.012379 -1.056987 -4.354830 -3.700195 -0.965777 -3.711824 3.657429 -2.592027 4.100192 -1.733858 -0.299373 3.229285 0.000000 0.000000 0.000000 11.494116 -0.850098 -3.555170 -46.250791 -50.647196 -14.993368 178.346000 -78.385357 179.733353 18.729052 -0.886546 -0.287680 -0.193997 0.842337 -0.000000 0.000000 0.000000 0.000000 0.000000 0.000000 0.000000 -1.771599 -2.067206 -4.074191 52.272795 62.146011 -13.230917 0.165911 84.885154 -0.226981 -15.924717 10.656144 -1.616204 0.000650 -0.843410 -0.000000 0.000000 0.000000 0.000000 0.000000 0.000000 0.000000 
6.550896 20.145541 0.839491 40.034473 -86.395249 -13.576491 1.563606 -0.923721 -4.213246 0.010642 -1.088583 -4.268286 -3.712593 -0.994851 -3.628229 3.717143 -2.710744 4.188837 -1.763641 -0.301400 3.244968 0.000000 0.000000 0.000000 11.509674 -0.703977 -3.572314 -46.384901 -50.637750 -15.273507 178.327344 -77.925453 179.735247 18.586178 -0.881448 -0.284675 -0.192415 0.842517 -0.000000 0.000000 0.000000 0.000000 0.000000 0.000000 0.000000 -1.667550 -2.335908 -4.146437 51.642765 61.913242 -14.077903 0.301377 86.202524 -0.230677 -16.248764 10.737197 -1.662452 0.008716 -0.845912 -0.000000 0.000000 0.000000 0.000000 0.000000 0.000000 0.000000 
6.338663 20.227331 0.825961 37.428370 -86.192724 -10.843928 1.665536 -0.952377 -3.966188 0.030048 -1.120728 -4.197459 -3.732991 -1.024655 -3.547594 3.794803 -2.819498 4.284439 -1.802238 -0.303988 3.263226 0.000000 0.000000 0.000000 11.493302 -0.622076 -3.593363 -46.577960 -50.685458 -15.496103 178.312541 -77.516862 179.736820 18.462529 -0.879143 -0.282459 -0.191093 0.843007 -0.000000 0.000000 0.000000 0.000000 0.000000 0.000000 0.000000 -1.503250 -2.602455 -4.202535 51.040813 61.680486 -14.868452 0.430681 87.477016 -0.233451 -16.511606 10.796624 -1.699394 0.016029 -0.847625 -0.000000 0.000000 0.000000 0.000000 0.000000 0.000000 0.000000 
6.125023 20.297443 0.812603 35.071739 -85.941183 -8.302381 1.765152 -0.981432 -3.797538 0.048176 -1.154661 -4.144267 -3.758028 -1.056403 -3.472527 3.876842 -2.914273 4.383337 -1.845986 -0.306914 3.283282 0.000000 0.000000 0.000000 11.445166 -0.600319 -3.615354 -46.799051 -50.767703 -15.680759 178.299955 -77.138635 179.737895 18.370537 -0.881621 -0.281531 -0.190496 0.843824 -0.000000 0.000000 0.000000 0.000000 0.000000 0.000000 0.000000 -1.308194 -2.859757 -4.245156 50.488974 61.452465 -15.597890 0.552565 88.698649 -0.235552 -16.725613 10.841960 -1.729431 0.022678 -0.848912 -0.000000 0.000000 0.000000 0.000000 0.000000 0.000000 0.000000 
5.910494 20.355964 0.799549 33.056535 -85.653155 -6.064280 1.867139 -1.010812 -3.685434 0.066367 -1.190207 -4.105117 -3.785587 -1.089811 -3.406051 3.953347 -2.991909 4.484340 -1.892599 -0.310046 3.304678 0.000000 0.000000 0.000000 11.362945 -0.633380 -3.635507 -47.019136 -50.865148 -15.844691 178.288527 -76.767693 179.738386 18.314301 -0.901745 -0.284097 -0.190890 0.845210 -0.000000 0.000000 0.000000 0.000000 0.000000 0.000000 0.000000 -1.101246 -3.101822 -4.277040 49.998787 61.238280 -16.263711 0.666096 89.857863 -0.237202 -16.903058 10.880746 -1.754664 0.028751 -0.850033 -0.000000 0.000000 0.000000 0.000000 0.000000 0.000000 0.000000 
5.695535 20.402424 0.787000 31.362279 -85.341728 -4.114680 1.978575 -1.040403 -3.617884 0.086836 -1.227512 -4.078020 -3.812509 -1.125015 -3.349268 4.013574 -3.050088 4.586708 -1.938791 -0.313202 3.327102 0.000000 0.000000 0.000000 11.248419 -0.709526 -3.651983 -47.223406 -50.962505 -15.999705 178.277158 -76.385237 179.738230 18.298472 -0.943976 -0.291056 -0.192513 0.847212 -0.000000 0.000000 0.000000 0.000000 0.000000 0.000000 0.000000 -0.907976 -3.324393 -4.302465 49.585896 61.040247 -16.865037 -179.228035 89.045587 179.761286 -17.063940 10.923075 -1.778796 0.034495 -0.851306 -0.000000 0.000000 0.000000 0.000000 0.000000 0.000000 0.000000 
5.480539 20.437249 0.775099 29.959918 -85.021068 -2.433286 2.103808 -1.069453 -3.578463 0.111007 -1.265790 -4.059789 -3.836194 -1.161228 -3.302505 4.050282 -3.086958 4.691140 -1.981909 -0.316246 3.350512 0.000000 0.000000 0.000000 11.104280 -0.815151 -3.663890 -47.405355 -51.050614 -16.153280 178.265033 -75.976271 179.737423 18.323837 -1.010722 -0.302813 -0.195469 0.849822 -0.000000 0.000000 0.000000 0.000000 0.000000 0.000000 0.000000 -0.747681 -3.524249 -4.325602 49.260264 60.859630 -17.403288 -179.128569 88.008392 179.759634 -17.227744 10.977620 -1.805327 0.040173 -0.852970 -0.000000 0.000000 0.000000 0.000000 0.000000 0.000000 0.000000 
5.265955 20.460538 0.763872 28.788506 -84.705052 -0.969295 2.246554 -1.096884 -3.550039 0.139943 -1.303878 -4.046813 -3.854904 -1.197279 -3.265223 4.060242 -3.101275 4.798716 -2.020046 -0.319079 3.374934 0.000000 0.000000 0.000000 10.934419 -0.935023 -3.671052 -47.565457 -51.126941 -16.307667 178.251784 -75.532768 179.736014 18.388113 -1.101552 -0.319268 -0.199745 0.852973 -0.000000 0.000000 0.000000 0.000000 0.000000 0.000000 0.000000 -0.632380 -3.699249 -4.350225 49.024992 60.697306 -17.881697 -179.033936 87.024554 179.757619 -17.411372 11.050546 -1.837158 0.046041 -0.855168 -0.000000 0.000000 0.000000 0.000000 0.000000 0.000000 0.000000 
5.052002 20.472672 0.753300 27.817335 -84.405343 0.300553 2.405598 -1.121531 -3.518873 0.173523 -1.340224 -4.035871 -3.867458 -1.231643 -3.236032 4.043921 -3.092773 4.910789 -2.051943 -0.321639 3.400461 0.000000 0.000000 0.000000 10.743980 -1.054462 -3.674147 -47.710319 -51.193652 -16.461298 178.237245 -75.051714 179.734109 18.486522 -1.211728 -0.339726 -0.205228 0.856503 -0.000000 0.000000 0.000000 0.000000 0.000000 0.000000 0.000000 -0.567510 -3.848761 -4.379271 48.877514 60.553310 -18.305588 -178.942459 86.085674 179.755101 -17.627089 11.144615 -1.876092 0.052314 -0.857957 -0.000000 0.000000 0.000000 0.000000 0.000000 0.000000 0.000000 
4.838725 20.473623 0.743296 26.967568 -84.132614 1.448294 2.582685 -1.141770 -3.472374 0.211978 -1.373084 -4.023918 -3.873745 -1.262570 -3.213272 4.004980 -3.061255 5.028227 -2.077197 -0.323901 3.427095 0.000000 0.000000 0.000000 10.538331 -1.160574 -3.674080 -47.849594 -51.257929 -16.609448 178.221616 -74.536027 179.731826 18.612867 -1.333460 -0.362987 -0.211734 0.860198 -0.000000 0.000000 0.000000 0.000000 0.000000 0.000000 0.000000 -0.551251 -3.972204 -4.414348 48.808101 60.426971 -18.681932 -178.852957 85.185209 179.752041 -17.880847 11.258594 -1.922927 0.059130 -0.861275 -0.000000 0.000000 0.000000 0.000000 0.000000 0.000000 0.000000 
4.626114 20.463309 0.733656 26.235580 -83.893244 2.474154 2.771530 -1.156783 -3.404843 0.253858 -1.401029 -4.009145 -3.873854 -1.288691 -3.195030 3.949512 -3.007377 5.151348 -2.095806 -0.325859 3.454761 0.000000 0.000000 0.000000 10.324608 -1.243101 -3.672175 -47.994084 -51.327247 -16.745172 178.205019 -73.991156 179.729304 18.760291 -1.456797 -0.387154 -0.219046 0.863801 -0.000000 0.000000 0.000000 0.000000 0.000000 0.000000 0.000000 -0.577352 -4.069914 -4.456025 48.802809 60.317118 -19.018910 -178.764335 84.314258 179.748479 -18.172500 11.387806 -1.977168 0.066547 -0.865004 -0.000000 0.000000 0.000000 0.000000 0.000000 0.000000 0.000000 
4.414024 20.441586 0.724227 25.584878 -83.691584 3.410547 2.968264 -1.165639 -3.312406 0.298053 -1.422750 -3.990288 -3.868667 -1.308732 -3.179975 3.884936 -2.931990 5.279591 -2.108369 -0.327531 3.483234 0.000000 0.000000 0.000000 10.109143 -1.296055 -3.669551 -48.153484 -51.409749 -16.861483 178.187761 -73.426853 179.726670 18.921973 -1.571672 -0.410628 -0.226913 0.867074 -0.000000 0.000000 0.000000 0.000000 0.000000 0.000000 0.000000 -0.635273 -4.141979 -4.503610 48.843870 60.222291 -19.325536 -178.676142 83.466822 179.744538 -18.495911 11.525229 -2.037110 0.074531 -0.868968 -0.000000 0.000000 0.000000 0.000000 0.000000 0.000000 0.000000 
4.202276 20.407927 0.714824 24.993358 -83.529577 4.277063 3.168138 -1.167562 -3.195475 0.343241 -1.437104 -3.967061 -3.859260 -1.321583 -3.167125 3.818556 -2.836047 5.411803 -2.115746 -0.328947 3.512215 0.000000 0.000000 0.000000 9.898330 -1.316931 -3.667126 -48.334590 -51.511438 -16.950663 178.169921 -72.850514 179.724029 19.091853 -1.669076 -0.431509 -0.235120 0.869819 -0.000000 0.000000 0.000000 0.000000 0.000000 0.000000 0.000000 -0.713330 -4.188142 -4.555483 48.911496 60.140489 -19.610702 -178.588462 82.639053 179.740390 -18.840331 11.662360 -2.100354 0.082967 -0.872966 -0.000000 0.000000 0.000000 0.000000 0.000000 0.000000 0.000000 
